<?xml version="1.0" standalone="no"?>
<!DOCTYPE svg PUBLIC "-//W3C//DTD SVG 1.1//EN" "http://www.w3.org/Graphics/SVG/1.1/DTD/svg11.dtd" >
<svg xmlns="http://www.w3.org/2000/svg">
<metadata>
This is a custom SVG webfont generated by Font Squirrel.
Copyright   : Copyright c 2011 Carolina Trebol cafromzeroorg with Reserved Font Name Marvel
Designer    : Carolina Trebol
Foundry     : Carolina Trebol
Foundry URL : fromzeroorg
</metadata>
<defs>
<font id="MarvelItalic" horiz-adv-x="416" >
<font-face units-per-em="1000" ascent="800" descent="-200" />
<missing-glyph horiz-adv-x="213" />
<glyph unicode=" "  horiz-adv-x="213" />
<glyph unicode="&#x09;" horiz-adv-x="213" />
<glyph unicode="&#xa0;" horiz-adv-x="213" />
<glyph unicode="!" horiz-adv-x="195" d="M42 137l96 542h50l-96 -542h-50zM17 1l16 87h51l-15 -87h-52z" />
<glyph unicode="&#x22;" horiz-adv-x="312" d="M322 629q-10 -55 -37.5 -88t-68.5 -48l-6 58q19 8 34 26t22 53l9 49h56zM195 629q-10 -55 -37.5 -88t-68.5 -48l-6 58q19 8 34 26t22 53l8 49h57z" />
<glyph unicode="$" horiz-adv-x="468" d="M281 741h54l-12 -67q11 -2 20.5 -5.5t17.5 -5.5l76 -34l-28 -55l-24 13t-32.5 15.5t-34.5 13t-32 5.5q-26 0 -50.5 -11t-43.5 -29t-32.5 -42.5t-17.5 -50.5q-5 -30 1.5 -53t22 -38t37.5 -22t47 -7q39 0 70.5 -13.5t53 -36.5t30 -56t1.5 -72q-6 -38 -24.5 -71.5t-46 -58.5 t-60.5 -41t-69 -19l-13 -71h-53l12 74l-44 16.5t-40.5 17l-34 15.5t-22.5 11l29 53q45 -22 72.5 -34t43.5 -18t24.5 -7.5t18.5 -1.5q27 0 52 10.5t45.5 28t34.5 41.5t19 53q5 30 -2 52.5t-23.5 37.5t-38.5 22t-45 7q-39 0 -71 13.5t-53 37t-29.5 56t-2.5 71.5q6 36 23.5 68 t42.5 57t56 42t64 23z" />
<glyph unicode="&#x26;" horiz-adv-x="588" d="M376 125l-156 207l-59 -31q-38 -21 -62 -48.5t-32 -66.5q-6 -32 1.5 -58.5t25 -45t42.5 -28.5t56 -10q58 0 103 21.5t81 59.5zM482 348h47q-5 -27 -13 -57t-18.5 -59.5t-25 -57.5t-33.5 -49l86 -125h-62l-57 86q-44 -43 -101 -69t-122 -26q-42 0 -76.5 13.5t-58 39 t-33 61.5t-1.5 80q9 53 40 89.5t81 63.5l60 32l-41 56q-19 28 -26 54t-1 59q6 32 22.5 60.5t41.5 48.5t57 32.5t67 12.5q34 0 62.5 -11t47.5 -31t27 -48.5t2 -63.5q-9 -49 -37.5 -81.5t-72.5 -55.5l-78 -43l147 -197q28 38 43 84t26 102zM404 539q8 50 -19.5 78.5 t-77.5 28.5q-22 0 -43.5 -8t-39 -21.5t-30 -33t-16.5 -44.5q-1 -12 0 -24t8 -28t20.5 -37.5l35.5 -54.5l85 47q31 18 51.5 42t25.5 55zM463 0l-57 86z" />
<glyph unicode="'" horiz-adv-x="185" d="M195 629q-10 -55 -37.5 -88t-68.5 -48l-6 58q19 8 34 26t22 53l8 49h57l-9 -50v0z" />
<glyph unicode="(" horiz-adv-x="233" d="M24 80l92 520q6 34 19 58.5t31 39.5t40.5 22.5t46.5 7.5h18l-10 -53h-13q-28 0 -50 -14.5t-29 -55.5l-94 -530q-4 -21 -1 -34t11 -21t19.5 -11.5t25.5 -3.5h13l-9 -53h-18q-24 0 -43.5 7.5t-32 22.5t-17.5 39.5t1 58.5z" />
<glyph unicode=")" horiz-adv-x="234" d="M128 79q-13 -68 -50.5 -97.5t-86.5 -29.5h-17l9 52h12q28 0 50.5 14.5t30.5 55.5l95 531q3 21 0 34t-11.5 21t-20 11.5t-25.5 3.5h-12l10 53h17q24 0 43.5 -7.5t32 -22.5t17.5 -39.5t-1 -58.5l-93 -521v0z" />
<glyph unicode="*" horiz-adv-x="394" d="M304 217l-95 63l-18 -122h-43l25 122l-115 -63l-14 37l116 58l-96 59l27 35l93 -62l19 123h42l-25 -123l117 62l14 -35l-117 -59l97 -58z" />
<glyph unicode="+" horiz-adv-x="423" d="M362 228h-133l-23 -133h-63l23 133h-133l11 63h133l24 133h63l-24 -133h132z" />
<glyph unicode="," horiz-adv-x="176" d="M73 47q-10 -55 -37.5 -88t-68.5 -48l-6 58q19 8 34.5 26t20.5 53l9 49h56l-8 -50v0z" />
<glyph unicode="-" horiz-adv-x="361" d="M64 313l12 62h232l-11 -62h-233z" />
<glyph unicode="." horiz-adv-x="184" d="M6 5l15 85h67l-15 -85h-67z" />
<glyph unicode="/" horiz-adv-x="262" d="M216 678h59l-218 -677h-58z" />
<glyph unicode="0" horiz-adv-x="433" d="M154 43h31q33 0 61 24.5t34 59.5l66 375q3 20 -1.5 35t-15.5 25t-26.5 15.5t-32.5 5.5q-21 0 -39.5 -4t-34 -13.5t-26 -24.5t-14.5 -39l-66 -375q-7 -35 11.5 -59.5t52.5 -24.5zM396 502l-67 -378q-5 -28 -19.5 -52t-35 -42t-45.5 -28.5t-52 -10.5h-32q-28 0 -49 10.5 t-35.5 28.5t-20 42t-0.5 52l67 378q5 29 19.5 53t34.5 42t45.5 28t52.5 10h32q26 0 48 -10t36 -28t20 -42t1 -53z" />
<glyph unicode="1" horiz-adv-x="213" d="M133 604l56 26l-110 -629h-52z" />
<glyph unicode="2" horiz-adv-x="393" d="M265 355q20 22 30.5 45.5t15.5 51.5q3 26 -0.5 50t-14.5 42t-28.5 28.5t-41.5 10.5q-5 0 -11.5 -1.5t-20 -6t-35.5 -12.5l-58 -22l-14 51l80 30q15 6 35.5 9.5t35.5 4.5q34 0 60 -14.5t43 -39t23.5 -57t-0.5 -70.5q-6 -34 -17 -62t-40 -59q-34 -46 -75 -95.5l-75 -90.5 l-80 -94h214l-9 -54h-269l10 63z" />
<glyph unicode="3" horiz-adv-x="409" d="M99 592l74 28q16 7 40 11.5t37 4.5q35 -1 61 -14.5t41.5 -36.5t20.5 -55t-1 -70q-8 -40 -26.5 -70.5t-61.5 -63.5q20 -17 29 -35.5t12 -38.5t0.5 -41t-5.5 -40q-7 -38 -25 -70.5t-43.5 -57t-56.5 -39t-65 -14.5q-15 1 -33.5 5t-33.5 10l-62 26l23 52l73 -34l20 -6t20 -3 q24 0 46 11t40 30t30.5 43t18.5 51q3 26 2 49t-11 41t-28.5 29t-46.5 11h-55l9 47h56q57 0 86 32.5t40 84.5q3 26 -3.5 47t-18.5 36t-29 23.5t-34 8.5q-10 0 -25 -2.5t-26 -7.5l-76 -32z" />
<glyph unicode="4" horiz-adv-x="392" d="M228 0l33 189h-245l9 57l215 384h53l-212 -388h189l20 110h51l-62 -352h-51z" />
<glyph unicode="5" horiz-adv-x="424" d="M352 189q-8 -41 -24 -76t-39.5 -62.5t-55.5 -43t-70 -15.5q-19 0 -45 6t-48.5 12.5t-38 13l-15.5 6.5l27 55q21 -10 44 -18q20 -7 42 -12.5t42 -5.5q27 0 48.5 11.5t37 31t26 44.5t15.5 53l5 28q4 28 3 53.5t-10.5 44.5t-27 30t-44.5 11h-149l48 274h252l-8 -50h-195 l-30 -172h93q39 0 65.5 -14.5t41.5 -40t18.5 -60.5t-3.5 -76l-5 -28v0z" />
<glyph unicode="6" d="M240 351h-31q-17 0 -32.5 -6.5t-28.5 -18t-22 -27t-12 -32.5l-25 -145q-4 -20 1.5 -35.5t16.5 -26t27.5 -15t36.5 -4.5q37 0 69 19t39 62l26 145q5 35 -13.5 59.5t-51.5 24.5zM177 -7h-32q-27 0 -48.5 10.5t-35.5 28t-20 42t-1 52.5l64 363q6 32 22.5 59t40 47t53 30.5 t60.5 10.5q5 0 19.5 -3t30.5 -6q17 -4 39 -10l-23 -46q-17 5 -33 9l-25 6t-15 3q-21 0 -41.5 -7.5t-37 -20.5t-28 -31.5t-15.5 -40.5l-20 -116q14 10 31 15.5t33.5 8.5t31 3.5t21.5 0.5q27 0 48.5 -11t36 -30t20 -43.5t0.5 -52.5l-24 -138q-5 -28 -19 -52.5t-35 -42t-46 -28 t-52 -10.5z" />
<glyph unicode="7" horiz-adv-x="359" d="M93 630h283l-10 -63l-280 -567h-55l283 581h-230z" />
<glyph unicode="8" horiz-adv-x="428" d="M151 38h31q34 0 62 25t34 61l13 74q8 42 -18.5 61.5t-64.5 19.5t-69.5 -19t-39.5 -62l-13 -74q-6 -36 12.5 -61t52.5 -25zM206 344h31q34 0 61.5 25.5t34.5 61.5l13 75q3 20 -1.5 35t-15.5 25.5t-26.5 16t-33.5 5.5q-21 0 -40 -4.5t-34 -13.5t-26 -24.5t-15 -39.5 l-13 -75q-7 -36 12 -61.5t53 -25.5zM135 313q-25 17 -38.5 47.5t-6.5 67.5l15 83q6 35 23 59t40.5 38.5t52 20.5t58.5 6q28 0 51.5 -8.5t39.5 -24.5t23.5 -39t1.5 -52l-15 -83q-7 -38 -30.5 -68.5t-56.5 -47.5q28 -15 41.5 -42.5t6.5 -65.5l-14 -83q-5 -26 -18.5 -49.5 t-33 -41.5t-43.5 -28.5t-50 -10.5h-46q-25 0 -45.5 10.5t-34 28.5t-19 41.5t-0.5 49.5l14 83q7 37 30 66t54 43z" />
<glyph unicode="9" horiz-adv-x="424" d="M189 290h31q33 0 60.5 25t34.5 59l24 133q2 20 -2.5 35t-15.5 25t-26.5 15.5t-32.5 5.5q-20 0 -38.5 -4t-34 -13.5t-26.5 -24.5t-15 -39l-23 -133q-7 -34 11.5 -59t52.5 -25zM250 636h32q26 0 48 -10t36 -28t20 -42t1 -53l-65 -366q-6 -32 -22.5 -59.5t-40 -47 t-52.5 -30.5t-61 -11q-4 0 -26 5t-45 11l-61 15l21 46q31 -9 56 -15l40.5 -9.5t22.5 -4.5q21 0 40.5 7t36 20.5t28.5 31.5t16 41l23 131q-11 -9 -27.5 -14.5t-33.5 -8.5t-32.5 -3.5t-24.5 -0.5q-27 0 -48 10.5t-35.5 29.5t-20 43.5t-0.5 52.5l22 126q5 29 19.5 53t35 42 t45.5 28t52 10z" />
<glyph unicode=":" horiz-adv-x="195" d="M132 311h-67l16 88h66zM77 1h-67l14 85h67z" />
<glyph unicode=";" horiz-adv-x="221" d="M103 45q-10 -55 -37.5 -88t-68.5 -48l-21 56q18 8 35.5 27t24.5 54l9 49h67zM82 311l16 88h67l-16 -88h-67z" />
<glyph unicode="&#x3c;" horiz-adv-x="485" d="M395 218l-9 -52l-340 86l14 83l370 82l-9 -53l-168 -35q-15 -4 -37.5 -8.5t-43.5 -9.5q-26 -4 -52 -10l-3 -20l14.5 -3l34 -7t41 -9l35.5 -8z" />
<glyph unicode="=" horiz-adv-x="478" d="M81 359l11 62h333l-11 -62h-333zM48 170l11 62h333l-12 -62h-332z" />
<glyph unicode="&#x3e;" horiz-adv-x="483" d="M225 259q15 3 37.5 8t44 8.5t37 7l15.5 3.5l3 20l-48 10q-19 5 -40.5 9.5t-34.5 8.5l-155 35l9 53l341 -82l-15 -83l-370 -86l9 52z" />
<glyph unicode="?" horiz-adv-x="421" d="M140 0l14 87h-67l-14 -87h67zM416 523q-6 -31 -19 -53.5t-26 -38.5l-176 -209q-12 -13 -21.5 -28.5t-13.5 -37.5l-4 -20h-56l4 19q6 34 18 56.5t26 38.5l167 198q14 17 28 36t17 38q5 25 -4.5 45.5t-26 34.5t-36.5 21.5t-38 7.5q-12 0 -24.5 -2.5t-24.5 -7.5l-101 -36 l-10 52l88 34q18 7 42 12.5t40 5.5q35 0 65.5 -12.5t52 -34t31 -52t2.5 -67.5z" />
<glyph unicode="@" horiz-adv-x="847" d="M818 389q-8 -46 -27.5 -92.5t-49 -84t-69 -62t-86.5 -24.5q-33 0 -53.5 21.5t-20.5 55.5q-11 -17 -27 -31t-34.5 -23.5t-38.5 -15t-39 -5.5q-36 0 -62.5 14t-41.5 37.5t-19 54.5t2 65q7 40 25.5 77.5t47 67.5t65 48t79.5 18q34 0 61 -16t36 -48l22 55h36l-65 -256 q0 -2 -0.5 -4t-0.5 -4q-6 -31 4 -50t36 -19q33 0 62 19t51.5 50.5t37.5 71t23 80.5q12 68 -3 121.5t-50.5 90t-89.5 55.5t-119 19q-80 0 -149 -26.5t-123 -74t-90 -113.5t-50 -145q-13 -70 0 -132t47 -107.5t89 -72t127 -26.5q64 0 127 11t127 36l-8 -45 q-68 -28 -128.5 -37.5t-128.5 -9.5q-82 0 -144.5 29.5t-102 81.5t-53.5 122t0 150q16 89 57 163.5t103 128t140 83t168 29.5q75 0 136 -22.5t102 -65t58 -104t4 -139.5zM537 340q4 25 3 48t-10 41t-27 29t-47 11q-31 0 -57.5 -16t-47 -40t-34 -54t-18.5 -60q-5 -27 -2.5 -51 t12.5 -41.5t28 -27.5t45 -10q34 0 60.5 16.5t46 41t32 54.5t16.5 59z" />
<glyph unicode="A" horiz-adv-x="456" d="M305 247l-15 369h-13l-145 -369h173v0zM107 190l-76 -189h-52l274 679h83l36 -679h-52l-11 189h-202v0z" />
<glyph unicode="B" horiz-adv-x="469" d="M136 317l-46 -261h122q30 0 50.5 10.5t35.5 28t24 40.5t14 49q4 27 4 51.5t-9 42.5t-26.5 28.5t-46.5 10.5h-122zM370 501q2 27 -1 50.5t-11.5 38t-17.5 23.5q-1 2 -4 3q-1 0 0 1q-1 0 -2 1l-14.5 8.5t-33.5 5.5q-10 0 -32.5 -3.5t-66.5 -21.5l-41 -234h99q30 0 51 10.5 t35.5 28t24 40.5t14.5 49zM305 689q35 0 50 -9t18 -12q21 -13 36 -37t21 -57t-1 -69q-8 -43 -26 -85t-64 -76q23 -17 35.5 -36t18 -38.5t5 -40.5t-4.5 -45q-7 -38 -22.5 -71t-30.5 -49t-21 -21q-20 -18 -48 -30.5t-68 -12.5h-177l115 651q38 14 67.5 22t41.5 10q29 6 55 6z " />
<glyph unicode="C" horiz-adv-x="431" d="M100 182q-6 -31 0 -56t20.5 -42.5t36 -27.5t47.5 -11q7 0 15.5 1.5t22.5 6t36.5 13l58.5 21.5l11 -55l-83 -28q-18 -6 -37.5 -10t-33.5 -4q-37 0 -67 13t-50.5 37.5t-29 59t-0.5 78.5l1 9l54 304q7 41 27 76t41 54t33 28.5t25 15.5l32 14.5t59 9.5q14 0 32.5 -5t32.5 -10 l71 -30l-27 -50l-79 33q-9 3 -19 6t-20 3q-26 0 -51.5 -12t-46.5 -32.5t-36 -46.5t-20 -54z" />
<glyph unicode="D" horiz-adv-x="471" d="M136 651q62 24 102.5 31t54.5 7q38 0 67.5 -16t48 -43t25.5 -62.5t1 -75.5l-56 -313q-7 -40 -28.5 -74.5t-51.5 -60.5t-66.5 -40t-73.5 -14q-8 0 -18 1t-26 4.5t-38 11t-52 19.5zM376 492q8 43 -6 75.5t-36 48.5q-27 16 -52 16q-22 0 -49.5 -9.5l-51.5 -18.5l-94 -533 q21 -10 35.5 -15t24.5 -6.5t17.5 -1.5h12.5q24 0 48 11.5t44.5 31t35.5 44.5t20 53z" />
<glyph unicode="E" horiz-adv-x="402" d="M420 679l-10 -55h-218l-45 -254h171l-11 -57h-170l-45 -256h220l-9 -56h-276l119 678h274z" />
<glyph unicode="F" horiz-adv-x="385" d="M420 679l-10 -55h-218l-45 -255h171l-11 -56h-170l-55 -313h-55l119 679h274z" />
<glyph unicode="G" horiz-adv-x="442" d="M157 494l-56 -322q-5 -27 1 -50.5t20.5 -41t35 -27.5t45.5 -10q9 0 28 3.5t59 23.5l33 183h54l-38 -218q-61 -29 -97.5 -37t-50.5 -8q-39 0 -69 15.5t-49 42.5t-25.5 62.5t0.5 74.5l54 309q20 91 78 143t136 52q14 -1 32.5 -5t32.5 -10l57 -23l-29 -55l-63 26 q-23 9 -40 9q-26 0 -50.5 -11t-45 -30t-34.5 -44t-19 -52z" />
<glyph unicode="H" horiz-adv-x="508" d="M146 679h55l-55 -307h237l54 307h56l-120 -678h-55l55 313h-236l-56 -313h-54l119 678v0z" />
<glyph unicode="I" horiz-adv-x="212" d="M146 679h51l-119 -679h-51z" />
<glyph unicode="J" horiz-adv-x="307" d="M195 132q-7 -41 -16 -68t-24.5 -43.5t-39.5 -23.5t-60 -7q-4 0 -16 0.5t-26.5 2t-27 3t-19.5 3.5l21 57q4 -1 16 -2.5t24.5 -2.5t22.5 -2t12 -1q13 0 25 2.5t22 11t18.5 23.5t12.5 40l98 554h54l-97 -547v0z" />
<glyph unicode="K" horiz-adv-x="389" d="M245 0l-82 309h-27l-55 -309h-54l119 679h55l-55 -311h26l195 309h60l-209 -339l88 -338h-61z" />
<glyph unicode="L" horiz-adv-x="371" d="M146 679h56l-111 -625h216l-9 -54h-271z" />
<glyph unicode="M" horiz-adv-x="600" d="M298 257l203 422h84l-119 -679h-53l99 565h-12l-178 -365h-84l-49 365h-11l-99 -565h-52l119 679h85l51 -422h16z" />
<glyph unicode="N" horiz-adv-x="548" d="M533 679l-120 -679h-94l-132 565h-11l-99 -565h-50l119 679h70l146 -612h12l108 612h51z" />
<glyph unicode="O" horiz-adv-x="513" d="M365 167l60 340q7 39 -4.5 63t-30 37t-40 17.5t-37.5 4.5q-15 0 -39 -5t-47.5 -18t-42.5 -37t-26 -63l-60 -340q-7 -39 4 -62t30 -35t41.5 -15.5t37.5 -3.5q16 0 39.5 4t46 16t42 35t26.5 62zM418 167q-4 -21 -17.5 -51.5t-39.5 -58t-66 -47t-95 -19.5q-54 0 -86.5 19.5 t-49 47t-19.5 58t1 51.5l60 339q3 22 17 53t40 59.5t66 49t95 20.5q54 0 86 -20.5t48.5 -48.5t20 -59t-0.5 -53z" />
<glyph unicode="P" horiz-adv-x="486" d="M297 632q-18 0 -37 -4t-36 -9q-19 -6 -39 -13l-48 -272h107q70 0 119.5 38.5t63.5 115.5q13 76 -24 110t-106 34zM315 689q40 0 74 -14t57 -40.5t33.5 -63.5t2.5 -83q-8 -47 -30 -85.5t-54 -66.5t-72.5 -43.5t-83.5 -15.5h-116l-48 -277h-52l115 651q26 10 56 18 q25 8 56 14t62 6z" />
<glyph unicode="Q" horiz-adv-x="513" d="M422 505q7 39 -3.5 63.5t-28.5 38.5t-39.5 19t-37.5 5q-15 0 -38.5 -5t-46.5 -18.5t-42 -38t-26 -63.5l-60 -340q-7 -39 3.5 -62t29.5 -35t41 -15.5t37 -3.5q16 0 39 3.5t45.5 15.5t41.5 35t26 62zM418 166q-4 -20 -15 -46t-32 -51t-51.5 -45.5t-73.5 -28.5q5 -23 27 -34 l-27 -59q-26 12 -42.5 33.5t-19.5 55.5q-49 3 -77.5 23t-43.5 47t-18 56t1 50l59 338q4 22 18 53t40 60t66 49.5t95 20.5q54 0 86 -20.5t48.5 -49.5t19.5 -60t-1 -53z" />
<glyph unicode="R" horiz-adv-x="499" d="M297 632q-18 0 -37 -3.5t-36 -8.5q-19 -6 -39 -13l-48 -272h107q70 0 120 41.5t64 118.5q7 38 0 64t-24.5 42.5t-45 23.5t-61.5 7zM337 296l68 -296h-54l-71 281q-19 -3 -38 -3h-116l-48 -278h-52l115 651q27 10 57 18q25 8 56 14t61 6q40 0 74.5 -13t58 -38t34 -61 t1.5 -82q-6 -33 -19.5 -64.5t-32.5 -58t-43 -46t-51 -30.5z" />
<glyph unicode="S" horiz-adv-x="461" d="M412 199q-8 -41 -28 -77t-49.5 -62.5t-66 -42.5t-75.5 -16q-38 0 -72.5 9.5t-60.5 21.5q-31 14 -57 32l29 53q29 -17 59 -30q25 -10 55.5 -19.5t55.5 -9.5q27 0 52.5 11t46 29.5t35 44t19.5 54.5q6 30 -4.5 50t-28.5 33t-42.5 20t-47.5 11q-35 6 -64 20.5t-48.5 38 t-28 54.5t-1.5 70q7 40 28 75t50 62t65 42.5t73 15.5q23 0 47 -5.5t44 -11.5l44 -16l-28 -55q-20 9 -41 16q-17 6 -38.5 10.5t-40.5 4.5q-26 0 -51 -11t-44.5 -30t-33.5 -43.5t-18 -50.5q-6 -30 2 -53t24.5 -38.5t38 -24.5t41.5 -13q39 -7 71.5 -19.5t54.5 -32.5t31.5 -49 t2.5 -68z" />
<glyph unicode="T" horiz-adv-x="414" d="M457 679l-10 -52h-155l-110 -627h-52l110 627h-161l9 52h369v0z" />
<glyph unicode="U" horiz-adv-x="526" d="M216 42q18 0 42 5t47.5 19.5t42 38.5t24.5 63l91 512h50l-90 -512q-5 -28 -19 -58.5t-39.5 -56.5t-64.5 -43t-92 -17q-54 0 -86.5 17t-49.5 43t-20 56.5t2 58.5l91 512h50l-90 -512q-7 -39 2 -63t26.5 -38.5t40 -19.5t42.5 -5z" />
<glyph unicode="V" horiz-adv-x="453" d="M433 679h54l-277 -679h-82l-33 679h53l27 -615h12l39 96l39 98.5l45 113.5z" />
<glyph unicode="W" horiz-adv-x="601" d="M305 352l-139 -351h-84l21 678h50l-19 -616h8l140 351h74l16 -351h7l198 616h51l-219 -678h-83l-14 351h-7z" />
<glyph unicode="X" horiz-adv-x="446" d="M211 308l-183 -308h-54l201 337l-82 342h54l78 -312h17l188 312h54l-202 -342l82 -337h-56l-73 308h-24z" />
<glyph unicode="Y" horiz-adv-x="430" d="M256 308h-14l-54 -308h-58l54 308h-11l-90 371h55l77 -312h17l188 312h54z" />
<glyph unicode="Z" horiz-adv-x="447" d="M379 608l3 14h-268l10 57h340l-10 -56l-387 -550l-3 -16h306l-10 -57h-377l10 64z" />
<glyph unicode="[" horiz-adv-x="238" d="M1 -81l147 835h135l-8 -48h-87l-131 -740h87l-8 -47h-135z" />
<glyph unicode="\" horiz-adv-x="379" d="M231 -55l-120 800h52l119 -800h-51z" />
<glyph unicode="]" horiz-adv-x="238" d="M-34 -82l8 47h86l131 740h-86l8 48h134l-146 -835h-135z" />
<glyph unicode="_" horiz-adv-x="213" />
<glyph unicode="`" horiz-adv-x="361" d="M300 571l-78 143h59l69 -143h-50z" />
<glyph unicode="a" horiz-adv-x="399" d="M275 236q0 1 -7.5 6t-21 11.5t-33 12t-41.5 5.5q-17 0 -33 -7t-29 -18.5t-22 -26.5t-12 -33l-11 -61q-6 -34 13 -58.5t52 -24.5q15 0 34.5 5t38.5 12q21 8 44 18zM292 48l15 -18l-40 -35l-23 26q-34 -17 -68 -24t-54 -7q-27 0 -49 11.5t-36 30t-19 44t-1 53.5l10 54 q5 28 19 53t35 43.5t46.5 29t52.5 10.5q7 0 20.5 -1t29.5 -4t31 -8t26 -14l6 33q4 22 0 44t-15 39.5t-27.5 28t-38.5 10.5q-7 0 -28 -5t-43 -9q-27 -6 -57 -14l-5 46q33 7 61 14q24 6 47 11t33 5q31 0 56 -14.5t41 -38.5t22.5 -54.5t0.5 -62.5z" />
<glyph unicode="b" horiz-adv-x="414" d="M75 77q1 -9 14.5 -15.5t30.5 -10.5t34.5 -6.5t25.5 -2.5q17 0 32.5 6.5t28.5 18t22 26.5t12 32l41 236q3 17 -0.5 32.5t-12.5 27t-22.5 18t-30.5 6.5q-8 0 -22.5 -2t-31.5 -6t-33.5 -10.5t-28.5 -15.5zM143 468q42 20 70.5 23.5t45.5 3.5q27 0 48.5 -11t36 -29.5 t20.5 -43.5t1 -53l-41 -229q-5 -28 -19.5 -53.5t-35.5 -43.5t-46 -29t-52 -11q-22 0 -53.5 6.5t-59.5 23.5l-31 -25l-28 34l22 19l111 629h48z" />
<glyph unicode="c" horiz-adv-x="343" d="M78 144q-5 -24 0 -43t17.5 -32.5t30 -20.5t38.5 -7q10 0 25 2.5t29 4.5q18 4 35 9l8 -44q-20 -7 -39 -11q-16 -4 -34.5 -7t-32.5 -3q-32 0 -57.5 11.5t-42.5 31.5t-24.5 48t-1.5 61l35 202q6 33 23 61t41 47t53.5 30.5t61.5 11.5q16 0 32.5 -4t30.5 -9q16 -5 31 -12 l-19 -41q-13 5 -28 8q-13 4 -27.5 7t-27.5 3q-22 0 -41.5 -7t-36 -21t-29 -32t-15.5 -42z" />
<glyph unicode="d" horiz-adv-x="414" d="M257 76l59 334q-29 23 -58.5 28.5t-46.5 5.5q-16 0 -32 -6.5t-29 -18t-22 -27t-12 -32.5l-41 -236q-6 -34 13 -58.5t52 -24.5q8 0 26 2.5t37 6.5t34 10.5t20 15.5zM327 467l38 211h48l-111 -631l17 -22l-41 -34l-24 29q-34 -17 -68 -23t-54 -6q-27 0 -48.5 11t-36 29 t-20 43.5t-0.5 53.5l40 229q5 28 19.5 53t35.5 43.5t46 29.5t52 11q17 0 44.5 -3.5t62.5 -23.5z" />
<glyph unicode="e" horiz-adv-x="404" d="M210 234h2q18 0 34 7t29 19.5t22 28t11 32.5l7 41q4 23 -1.5 39t-18.5 25.5t-31 14t-38 4.5q-18 0 -36 -5.5t-32.5 -16.5t-25 -26.5t-14.5 -34.5l-22 -127zM67 357q5 29 19.5 54t36 43.5t47 29.5t53.5 11h33q27 0 50 -11t37.5 -29.5t21 -43.5t0.5 -54l-5 -32 q-8 -41 -27.5 -68.5t-47.5 -45t-63 -25t-73 -7.5q-15 0 -30.5 1t-31.5 3l-10 -58q0 -39 25.5 -61.5t63.5 -22.5q4 0 25 4l46 9l63 14l2 -52q-37 -7 -67 -12q-25 -5 -49 -9t-29 -4q-31 0 -57 11.5t-43.5 31.5t-25.5 48t-2 61z" />
<glyph unicode="f" horiz-adv-x="286" d="M112 0h-52l77 437h-86l9 48h86l13 76q13 68 50.5 97.5t86.5 29.5h17l-9 -53h-13q-27 0 -50.5 -14.5t-30.5 -53.5l-14 -82h93l-9 -48h-92z" />
<glyph unicode="g" horiz-adv-x="414" d="M316 410q-2 9 -15 15.5t-30 10.5t-34.5 6.5t-26.5 2.5q-16 0 -31.5 -6.5t-28 -18t-22 -26.5t-12.5 -32l-41 -237q-6 -35 13 -59.5t53 -24.5q8 0 23.5 2.5t33 6.5t33.5 10.5t26 14.5zM274 -113q-7 -36 -23.5 -62.5t-40.5 -43t-52.5 -24.5t-59.5 -8q-15 0 -37.5 4.5 t-44.5 10.5q-25 7 -51 16l22 45l49 -15q19 -6 39 -10.5t31 -4.5q20 0 40 6t36 17t27.5 28t15.5 40l22 130q-37 -18 -62.5 -21.5t-41.5 -3.5h-11q-27 0 -48.5 11t-36 29.5t-20 43.5t-0.5 53l41 230q5 28 19 53t35 43.5t46 29.5t52 11q22 0 51 -6.5t62 -22.5l34 29l29 -35 l-25 -21z" />
<glyph unicode="h" horiz-adv-x="420" d="M253 0l63 361q3 17 -0.5 32.5t-12.5 27t-22.5 18t-30.5 6.5q-8 0 -21.5 -1.5t-29 -5t-33 -10.5t-32.5 -17l-72 -411h-49l119 679h48l-37 -211q42 20 70.5 23.5t45.5 3.5q27 0 48.5 -11t36 -29.5t20.5 -43.5t1 -53l-63 -358h-49z" />
<glyph unicode="i" horiz-adv-x="184" d="M132 679h51l-13 -76h-52zM98 485h51l-85 -485h-51z" />
<glyph unicode="j" horiz-adv-x="185" d="M97 486h53l-104 -596q-13 -68 -51.5 -97.5t-86.5 -29.5h-18l10 53h13q28 0 50.5 14.5t30.5 55.5zM131 678h53l-12 -72h-54z" />
<glyph unicode="k" horiz-adv-x="332" d="M198 0l-63 232h-32l-41 -232h-49l119 679h49l-68 -388h31l137 193h56l-159 -224l75 -260h-55z" />
<glyph unicode="l" horiz-adv-x="212" d="M138 679h50l-98 -556q-4 -20 -1 -33t11.5 -21.5t20 -12t25.5 -3.5h12l-9 -52h-17q-24 0 -43.5 7.5t-32 22.5t-17 39t1.5 58z" />
<glyph unicode="m" horiz-adv-x="678" d="M325 365q3 17 -3 31.5t-18 25.5t-28.5 17t-33.5 6q-9 0 -23.5 -3t-29.5 -7.5t-29.5 -10.5t-24.5 -13l-72 -411h-49l76 438l-17 22l40 34l25 -30q28 13 54.5 22t50.5 9q43 0 77.5 -18.5t42.5 -57.5q17 23 37 37.5t40.5 23t40 12t36.5 3.5q35 0 58 -13t34.5 -32.5 t14.5 -43.5t-1 -47l-63 -359h-51l62 352q3 19 1.5 35.5t-8.5 29t-21.5 20t-38.5 7.5q-61 0 -94.5 -34.5t-43.5 -96.5l-55 -313h-50z" />
<glyph unicode="n" horiz-adv-x="428" d="M369 414q7 -24 5 -49t-7 -51l-56 -314h-51l60 344q9 50 -12.5 76t-54.5 26q-18 0 -47.5 -5.5t-70.5 -29.5l-72 -411h-49l76 437l-17 21l40 35l25 -29q57 30 105 30q44 0 79 -18t47 -62z" />
<glyph unicode="o" d="M282 140l37 210q6 32 -2.5 51t-23 29t-31.5 13.5t-29 3.5q-13 0 -32 -3.5t-37 -13.5t-33 -29t-20 -51l-37 -210q-6 -32 2 -51t22.5 -30t32 -14t30.5 -3t31 3t36.5 14t33 30t20.5 51zM326 133q-8 -45 -29.5 -72t-47.5 -42t-52 -20t-45 -5q-18 0 -42.5 5t-45 20t-32 42 t-3.5 72l39 224q8 45 29 72t47 41.5t52 19.5t45 5q18 0 42.5 -5t45 -19.5t32 -41.5t4.5 -72z" />
<glyph unicode="p" d="M77 74q9 -8 23.5 -14t30 -10.5t29 -7t21.5 -2.5q17 0 33 6.5t29 18t22 27t11 32.5l42 238q3 17 -0.5 32t-12 26.5t-22 18t-30.5 6.5q-18 0 -51.5 -7t-65.5 -28zM66 17l-47 -259h-48l120 681l-17 21l39 35l26 -29q36 16 68 22.5t54 6.5q27 0 48.5 -11t36 -29.5t20.5 -43.5 t1 -53l-41 -231q-5 -28 -19.5 -53t-35.5 -43.5t-46 -29.5t-52 -11q-17 0 -44.5 3.5t-62.5 23.5z" />
<glyph unicode="q" horiz-adv-x="414" d="M316 409q-33 25 -60 30t-46 5q-16 0 -31.5 -6.5t-28.5 -18t-22 -26.5t-12 -32l-41 -237q-6 -35 13 -59t53 -24q8 0 22.5 2t30.5 5.5t32.5 10t30.5 16.5zM228 7q-30 -14 -53.5 -15t-39.5 -2q-27 0 -49 11t-37 29.5t-21 43.5t-1 53l40 230q5 28 19.5 53.5t35.5 43.5t46 29 t52 11q22 0 52.5 -6.5t60.5 -22.5l35 29l28 -35l-25 -21l-121 -680h-48l45 258z" />
<glyph unicode="r" horiz-adv-x="330" d="M343 456l-34 -41q-14 10 -24 15.5t-18.5 8t-16.5 3t-18 0.5q-15 0 -41.5 -8t-55.5 -31l-71 -402h-48l75 429l-21 25l41 35l28 -33q33 25 59 31.5t44 6.5q20 0 42.5 -8t58.5 -31z" />
<glyph unicode="s" horiz-adv-x="361" d="M301 134q-13 -72 -55 -108t-99 -36q-17 0 -35.5 3t-34.5 11l-75 32l27 43l74 -32q13 -6 27 -8.5t26 -2.5q34 0 62 26t37 76q4 20 -2 34.5t-17 24t-25 13.5t-27 4q-35 0 -62 6.5t-44 22.5t-23 42t1 66q13 71 57.5 107.5t100.5 36.5q17 0 34 -4.5t36 -11.5l29 -11l-25 -42 q-22 9 -34.5 13t-21 6t-13 2.5t-9.5 0.5h-4q-34 0 -64.5 -26.5t-39.5 -75.5q-3 -20 3 -35.5t17.5 -26.5t25.5 -16.5t28 -5.5q30 0 56 -5.5t43.5 -19.5t24.5 -39t1 -64z" />
<glyph unicode="t" horiz-adv-x="266" d="M72 126l55 311h-82l8 49h83l34 193h51l-34 -193h89l-8 -49h-90l-55 -316q-4 -20 -1 -33t11.5 -21.5t20 -12t24.5 -3.5h22l-10 -52h-26q-24 0 -43.5 7.5t-32 22.5t-17.5 39t1 58z" />
<glyph unicode="u" horiz-adv-x="427" d="M37 72q-8 24 -5.5 49t7.5 51l55 313h51l-62 -343q-4 -26 0 -44.5t14 -31.5t24.5 -19.5t30.5 -6.5t32.5 3t32 8t29.5 11.5t24 12.5l72 410h50l-78 -437l19 -20l-42 -35l-23 29q-31 -15 -64.5 -22.5t-58.5 -7.5q-35 0 -66 18t-42 62z" />
<glyph unicode="v" horiz-adv-x="362" d="M314 485h50l-195 -485h-83l-30 485h49l21 -291q1 -15 1.5 -36.5t0.5 -42t0.5 -35l0.5 -14.5h19l20 50l16.5 42.5l14.5 36.5z" />
<glyph unicode="w" horiz-adv-x="526" d="M334 484l-3 -421h8l135 422h49l-163 -485h-72l-2 423h-11l-149 -423h-71l8 485h49l-17 -421h9l145 420h85z" />
<glyph unicode="x" horiz-adv-x="362" d="M152 213l-128 -213h-49l144 242l-59 243h50l57 -213h15l128 213h52l-143 -243l60 -241h-51l-55 212h-21z" />
<glyph unicode="y" horiz-adv-x="372" d="M24 -242l84 242h-7l-44 485h50q6 -107 12.5 -181t11.5 -122q6 -55 11 -91h11q14 36 39 91q20 48 53.5 122l83.5 181h49l-215 -485h-6l-83 -242h-50z" />
<glyph unicode="z" horiz-adv-x="402" d="M315 0h-331l9 50l310 365l3 19h-237l9 49h305l-9 -50l-309 -366l-4 -18h262z" />
<glyph unicode="{" horiz-adv-x="235" d="M112 -72q-33 0 -51.5 6.5t-29.5 18.5q-12 14 -14 32.5t3 52.5l107 603q6 34 14.5 52.5t25.5 32.5q14 12 35.5 18.5t54.5 6.5h22l-8 -48h-18q-22 0 -34 -1.5t-21 -8.5q-11 -9 -15.5 -24.5t-8.5 -38.5l-103 -584q-5 -24 -5 -38t8 -22q6 -7 17.5 -8.5t33.5 -1.5h18l-9 -48 h-22z" />
<glyph unicode="|" horiz-adv-x="191" d="M16 -10l121 689h48l-121 -689h-48z" />
<glyph unicode="}" horiz-adv-x="239" d="M125 40q-6 -34 -15 -52.5t-26 -32.5q-15 -12 -36 -18.5t-54 -6.5h-25l8 48h20h13q16 0 26 1.5t17 7.5q10 8 15 22t10 38l103 588q5 24 4.5 38t-7.5 22q-6 7 -18 8.5t-34 1.5h-20l7 48h26q33 0 52 -6.5t30 -18.5q11 -14 14 -32.5t-4 -52.5l-106 -603v0z" />
<glyph unicode="~" horiz-adv-x="455" d="M401 275q-21 -18 -36.5 -28.5t-28.5 -16.5t-24.5 -8.5t-25.5 -2.5q-18 0 -35.5 7.5t-35 16t-35 16t-36.5 7.5q-18 0 -33.5 -6.5t-43.5 -30.5l-27 26q20 18 35 28.5t28 16.5t25.5 8t25.5 2q21 0 38 -7t33.5 -16t33 -16t37.5 -7q17 0 32.5 6t43.5 31z" />
<glyph unicode="&#xa1;" horiz-adv-x="195" d="M164 543l-95 -542h-51l95 542h51zM188 679l-15 -87h-52l16 87h51z" />
<glyph unicode="&#xa2;" horiz-adv-x="355" d="M205 493l22 125h48l-21 -122q14 -2 28.5 -6t25.5 -8l27 -10l-19 -41q-13 5 -28 8q-13 4 -27.5 7t-27.5 3q-22 0 -41.5 -7t-36 -21t-28.5 -32t-15 -42l-36 -202q-5 -24 0 -43t17.5 -32.5t30 -20.5t38.5 -7q10 0 25 2.5t29 4.5q18 4 35 9l8 -44q-17 -5 -33 -9 q-14 -4 -30.5 -7t-30.5 -4l-21 -121h-49l22 124q-24 6 -43 19t-31 32.5t-16.5 43.5t0.5 53l36 202q5 28 17.5 52.5t31.5 43.5t42.5 31.5t50.5 18.5z" />
<glyph unicode="&#xa3;" horiz-adv-x="495" d="M429 510q7 40 -2 64.5t-26.5 38.5t-39 18t-39.5 4q-19 0 -41.5 -4.5t-43 -18.5t-36.5 -38t-23 -62l-25 -141h215l-11 -58h-214l-46 -261h304l-9 -52h-357l54 313h-38l11 58h38l24 139q7 39 25.5 71.5t45.5 56.5t62 37t76 13q39 0 70.5 -13t50.5 -37t27 -56.5t1 -71.5h-53 z" />
<glyph unicode="&#xa5;" horiz-adv-x="476" d="M379 171h-137l-31 -170h-58l30 170h-136l10 62h137l14 76h-12l-13 51h-103l10 62h79l-62 258h54l78 -312h16l188 312h55l-153 -258h78l-11 -62h-104l-29 -51h-13l-14 -76h138l-11 -62v0z" />
<glyph unicode="&#xa6;" horiz-adv-x="194" d="M137 679h50l-53 -303h-51zM71 303h50l-53 -303h-51z" />
<glyph unicode="&#xa8;" horiz-adv-x="445" d="M395 582l13 75h57l-14 -75h-56zM203 582l13 75h57l-14 -75h-56z" />
<glyph unicode="&#xa9;" horiz-adv-x="785" d="M746 339q-13 -72 -51 -135.5t-93.5 -111t-124 -75t-139.5 -27.5q-72 0 -131 27.5t-98 75t-55 111t-4 135.5q13 71 52 134.5t94 110.5t123.5 75t140.5 28t130.5 -28t97.5 -75t55 -110.5t3 -134.5zM697 339q11 62 -2.5 116.5t-47 95.5t-83.5 64t-112 23t-120.5 -23 t-106.5 -64t-81.5 -95.5t-44.5 -116.5q-11 -64 3 -118t47.5 -95t84 -64t112.5 -23t120.5 23t106.5 64t81 95t43 118zM312 263q-6 -37 14.5 -59.5t54.5 -22.5q8 0 19.5 2t23.5 5q13 3 28 7l6 -35l-30 -9q-14 -3 -28 -5t-25 -2q-25 0 -45.5 8.5t-34.5 24.5t-19.5 38t-0.5 48 l29 164q4 26 17.5 47.5t32 37t42 24t48.5 8.5q12 0 25 -3t24 -7q12 -3 25 -9l-15 -33q-11 3 -22 7q-10 2 -21 4.5t-22 2.5q-34 0 -62 -21.5t-35 -57.5z" />
<glyph unicode="&#xaa;" horiz-adv-x="399" d="M275 236q0 1 -7.5 6t-21 11.5t-33 12t-41.5 5.5q-17 0 -33 -7t-29 -18.5t-22 -26.5t-12 -33l-11 -61q-6 -34 13 -58.5t52 -24.5q15 0 34.5 5t38.5 12q21 8 44 18zM292 48l15 -18l-40 -35l-23 26q-34 -17 -68 -24t-54 -7q-27 0 -49 11.5t-36 30t-19 44t-1 53.5l10 54 q5 28 19 53t35 43.5t46.5 29t52.5 10.5q7 0 20.5 -1t29.5 -4t31 -8t26 -14l6 33q4 22 0 44t-15 39.5t-27.5 28t-38.5 10.5q-7 0 -28 -5t-43 -9q-27 -6 -57 -14l-5 46q33 7 61 14q24 6 47 11t33 5q31 0 56 -14.5t41 -38.5t22.5 -54.5t0.5 -62.5z" />
<glyph unicode="&#xad;" horiz-adv-x="361" d="M64 313l12 62h232l-11 -62h-233z" />
<glyph unicode="&#xae;" horiz-adv-x="784" d="M746 342q-13 -71 -51.5 -134.5t-94 -111.5t-124 -75t-139.5 -27q-72 0 -131 27t-97.5 75t-54.5 111.5t-4 134.5q13 72 52 135.5t94 110.5t123.5 75t140.5 28t130.5 -28t97.5 -75t55 -110.5t3 -135.5zM697 342q11 62 -3 117t-47.5 96t-83.5 64t-112 23t-120.5 -23 t-106 -64t-81 -96t-44.5 -117q-12 -63 2 -117t47.5 -95t84 -64t112.5 -23t120.5 23t106.5 64t81 95t44 117zM423 517q-11 0 -22 -2.5t-22 -5.5q-11 -4 -23 -7l-28 -161h65q41 0 70.5 24.5t37.5 70.5q7 45 -15 63t-63 18zM447 318l40 -175h-33l-41 166q-6 -2 -11.5 -2h-11.5 h-69l-29 -164h-30l69 386q16 5 34 10q15 5 33 8.5t37 3.5q23 0 43.5 -8t34.5 -22.5t20 -36t1 -48.5q-3 -20 -11.5 -38.5t-20 -34.5t-25.5 -27.5t-30 -17.5z" />
<glyph unicode="&#xb0;" horiz-adv-x="328" d="M330 568q-5 -25 -18 -46.5t-32.5 -38t-44 -26.5t-49.5 -10t-45 10t-33.5 26.5t-19.5 38t-1 46.5q4 26 17.5 47.5t33 38t43 26.5t48.5 10t46 -9.5t34.5 -26t19 -38.5t1.5 -48zM285 568q6 32 -13 54.5t-51 22.5q-15 0 -30 -6t-27.5 -16.5t-21 -24.5t-11.5 -30 q-6 -31 13 -53t50 -22q16 0 31.5 5.5t27.5 16t20.5 24.5t11.5 29z" />
<glyph unicode="&#xb2;" horiz-adv-x="393" d="M265 355q20 22 30.5 45.5t15.5 51.5q3 26 -0.5 50t-14.5 42t-28.5 28.5t-41.5 10.5q-5 0 -11.5 -1.5t-20 -6t-35.5 -12.5l-58 -22l-14 51l80 30q15 6 35.5 9.5t35.5 4.5q34 0 60 -14.5t43 -39t23.5 -57t-0.5 -70.5q-6 -34 -17 -62t-40 -59q-34 -46 -75 -95.5l-75 -90.5 l-80 -94h214l-9 -54h-269l10 63z" />
<glyph unicode="&#xb3;" horiz-adv-x="409" d="M99 592l74 28q16 7 40 11.5t37 4.5q35 -1 61 -14.5t41.5 -36.5t20.5 -55t-1 -70q-8 -40 -26.5 -70.5t-61.5 -63.5q20 -17 29 -35.5t12 -38.5t0.5 -41t-5.5 -40q-7 -38 -25 -70.5t-43.5 -57t-56.5 -39t-65 -14.5q-15 1 -33.5 5t-33.5 10l-62 26l23 52l73 -34l20 -6t20 -3 q24 0 46 11t40 30t30.5 43t18.5 51q3 26 2 49t-11 41t-28.5 29t-46.5 11h-55l9 47h56q57 0 86 32.5t40 84.5q3 26 -3.5 47t-18.5 36t-29 23.5t-34 8.5q-10 0 -25 -2.5t-26 -7.5l-76 -32z" />
<glyph unicode="&#xb4;" horiz-adv-x="457" d="M350 572h-50l118 143h59z" />
<glyph unicode="&#xb5;" horiz-adv-x="444" d="M-15 -202l59 330q1 11 2.5 21.5t3.5 22.5l56 313h1v2h48v-2h1l-61 -343q-5 -26 -0.5 -44.5t14 -31.5t24 -19.5t31.5 -6.5q15 0 31.5 3t32 8t30 11.5t23.5 12.5l73 410h50l-78 -437l18 -20l-41 -35l-24 29q-31 -15 -64.5 -22.5t-58.5 -7.5q-23 0 -44.5 7.5t-37.5 23.5 l-40 -225h-49z" />
<glyph unicode="&#x3bc;" horiz-adv-x="444" d="M-15 -202l59 330q1 11 2.5 21.5t3.5 22.5l56 313h1v2h48v-2h1l-61 -343q-5 -26 -0.5 -44.5t14 -31.5t24 -19.5t31.5 -6.5q15 0 31.5 3t32 8t30 11.5t23.5 12.5l73 410h50l-78 -437l18 -20l-41 -35l-24 29q-31 -15 -64.5 -22.5t-58.5 -7.5q-23 0 -44.5 7.5t-37.5 23.5 l-40 -225h-49z" />
<glyph unicode="&#xb8;" horiz-adv-x="390" d="M210 -95q-10 -54 -29.5 -81.5t-46.5 -38.5l-21 35q18 7 31 29t19 57l9 49h46l-8 -50v0z" />
<glyph unicode="&#xb9;" horiz-adv-x="213" d="M133 604l56 26l-110 -629h-52z" />
<glyph unicode="&#xba;" d="M282 140l37 210q6 32 -2.5 51t-23 29t-31.5 13.5t-29 3.5q-13 0 -32 -3.5t-37 -13.5t-33 -29t-20 -51l-37 -210q-6 -32 2 -51t22.5 -30t32 -14t30.5 -3t31 3t36.5 14t33 30t20.5 51zM326 133q-8 -45 -29.5 -72t-47.5 -42t-52 -20t-45 -5q-18 0 -42.5 5t-45 20t-32 42 t-3.5 72l39 224q8 45 29 72t47 41.5t52 19.5t45 5q18 0 42.5 -5t45 -19.5t32 -41.5t4.5 -72z" />
<glyph unicode="&#xbc;" horiz-adv-x="813" d="M649 0l33 189h-245l9 57l215 384h53l-212 -388h189l20 110h51l-62 -352h-51zM403 678h58l-217 -677h-58zM133 604l56 26l-110 -629h-52z" />
<glyph unicode="&#xbd;" horiz-adv-x="814" d="M686 355q20 22 30.5 45.5t15.5 51.5q3 26 -0.5 50t-14.5 42t-28.5 28.5t-41.5 10.5q-5 0 -11.5 -1.5t-20 -6t-35.5 -12.5l-58 -22l-14 51l80 30q15 6 35.5 9.5t35.5 4.5q34 0 60 -14.5t43 -39t23.5 -57t-0.5 -70.5q-6 -34 -17 -62t-40 -59q-34 -46 -75 -95.5l-75 -90.5 l-80 -94h214l-9 -54h-269l10 63zM403 678h58l-217 -677h-58zM133 604l56 26l-110 -629h-52z" />
<glyph unicode="&#xbe;" horiz-adv-x="1009" d="M845 0l33 189h-245l9 57l215 384h53l-212 -388h189l20 110h51l-62 -352h-51zM599 678h58l-217 -677h-58zM99 592l74 28q16 7 40 11.5t37 4.5q35 -1 61 -14.5t41.5 -36.5t20.5 -55t-1 -70q-8 -40 -26.5 -70.5t-61.5 -63.5q20 -17 29 -35.5t12 -38.5t0.5 -41t-5.5 -40 q-7 -38 -25 -70.5t-43.5 -57t-56.5 -39t-65 -14.5q-15 1 -33.5 5t-33.5 10l-62 26l23 52l73 -34l20 -6t20 -3q24 0 46 11t40 30t30.5 43t18.5 51q3 26 2 49t-11 41t-28.5 29t-46.5 11h-55l9 47h56q57 0 86 32.5t40 84.5q3 26 -3.5 47t-18.5 36t-29 23.5t-34 8.5 q-10 0 -25 -2.5t-26 -7.5l-76 -32z" />
<glyph unicode="&#xbf;" horiz-adv-x="414" d="M315 449l-15 -87h-67l15 87h67zM-27 -74q5 31 18 53.5t26 38.5l176 209q12 14 21 29t14 37l3 20h56l-3 -19q-6 -34 -18 -56.5t-26 -38.5l-167 -198q-14 -17 -28 -36t-18 -38q-5 -25 4.5 -45.5t26 -34.5t36.5 -21.5t38 -7.5q12 0 24.5 2.5t24.5 7.5l102 36l9 -52l-87 -34 q-18 -7 -42 -12.5t-40 -5.5q-35 0 -65.5 12.5t-51.5 34t-30.5 52t-2.5 67.5z" />
<glyph unicode="&#xc0;" horiz-adv-x="456" d="M305 247l-15 369h-13l-145 -369h173v0zM107 190l-76 -189h-52l274 679h83l36 -679h-52l-11 189h-202v0zM276 765l-78 143h59l69 -143h-50z" />
<glyph unicode="&#xc1;" horiz-adv-x="456" d="M305 247l-15 369h-13l-145 -369h173v0zM107 190l-76 -189h-52l274 679h83l36 -679h-52l-11 189h-202v0zM337 766h-50l118 143h59z" />
<glyph unicode="&#xc2;" horiz-adv-x="456" d="M305 247l-15 369h-13l-145 -369h173v0zM107 190l-76 -189h-52l274 679h83l36 -679h-52l-11 189h-202v0zM391 801l-62 79l-89 -79h-48l118 121h53l76 -121h-48z" />
<glyph unicode="&#xc3;" horiz-adv-x="456" d="M305 247l-15 369h-13l-145 -369h173v0zM107 190l-76 -189h-52l274 679h83l36 -679h-52l-11 189h-202v0zM444 829l14 -48h-264l-15 48h265z" />
<glyph unicode="&#xc4;" horiz-adv-x="456" d="M305 247l-15 369h-13l-145 -369h173v0zM107 190l-76 -189h-52l274 679h83l36 -679h-52l-11 189h-202v0zM381 776l13 75h57l-14 -75h-56zM189 776l13 75h57l-14 -75h-56z" />
<glyph unicode="&#xc5;" horiz-adv-x="456" d="M443 801q-5 -25 -18 -46.5t-32.5 -38t-44 -26.5t-49.5 -10t-45 10t-33.5 26.5t-19.5 38t-1 46.5q4 26 17.5 47.5t33 38t43 26.5t48.5 10t46 -9.5t34.5 -26t19 -38.5t1.5 -48zM398 801q6 32 -13 54.5t-51 22.5q-15 0 -30 -6t-27.5 -16.5t-21 -24.5t-11.5 -30 q-6 -31 13 -53t50 -22q16 0 31.5 5.5t27.5 16t20.5 24.5t11.5 29zM305 247l-15 369h-13l-145 -369h173v0zM107 190l-76 -189h-52l274 679h83l36 -679h-52l-11 189h-202v0z" />
<glyph unicode="&#xc6;" horiz-adv-x="721" d="M405 616l-229 -369l214 -1l66 369zM396 679h343l-10 -55h-220l-44 -254h172l-10 -57h-173l-45 -256h222l-9 -56h-275l33 189h-242l-120 -189h-52z" />
<glyph unicode="&#xc7;" horiz-adv-x="431" d="M100 182q-6 -31 0 -56t20.5 -42.5t36 -27.5t47.5 -11q7 0 15.5 1.5t22.5 6t36.5 13l58.5 21.5l11 -55l-83 -28q-18 -6 -37.5 -10t-33.5 -4q-37 0 -67 13t-50.5 37.5t-29 59t-0.5 78.5l1 9l54 304q7 41 27 76t41 54t33 28.5t25 15.5l32 14.5t59 9.5q14 0 32.5 -5t32.5 -10 l71 -30l-27 -50l-79 33q-9 3 -19 6t-20 3q-26 0 -51.5 -12t-46.5 -32.5t-36 -46.5t-20 -54zM200 -95q-10 -54 -29.5 -81.5t-46.5 -38.5l-21 35q18 7 31 29t19 57l9 49h46l-8 -50v0z" />
<glyph unicode="&#xc8;" horiz-adv-x="402" d="M420 679l-10 -55h-218l-45 -254h171l-11 -57h-170l-45 -256h220l-9 -56h-276l119 678h274zM268 765l-78 143h59l69 -143h-50z" />
<glyph unicode="&#xc9;" horiz-adv-x="402" d="M420 679l-10 -55h-218l-45 -254h171l-11 -57h-170l-45 -256h220l-9 -56h-276l119 678h274zM308 760h-50l118 143h59z" />
<glyph unicode="&#xca;" horiz-adv-x="402" d="M420 679l-10 -55h-218l-45 -254h171l-11 -57h-170l-45 -256h220l-9 -56h-276l119 678h274zM358 801l-62 79l-89 -79h-48l118 121h53l76 -121h-48z" />
<glyph unicode="&#xcb;" horiz-adv-x="402" d="M420 679l-10 -55h-218l-45 -254h171l-11 -57h-170l-45 -256h220l-9 -56h-276l119 678h274zM365 776l13 75h57l-14 -75h-56zM173 776l13 75h57l-14 -75h-56z" />
<glyph unicode="&#xcc;" horiz-adv-x="212" d="M146 679h51l-119 -679h-51zM162 765l-78 143h59l69 -143h-50z" />
<glyph unicode="&#xcd;" horiz-adv-x="212" d="M146 679h51l-119 -679h-51zM223 766h-50l118 143h59z" />
<glyph unicode="&#xce;" horiz-adv-x="212" d="M146 679h51l-119 -679h-51zM271 801l-62 79l-89 -79h-48l118 121h53l76 -121h-48z" />
<glyph unicode="&#xcf;" horiz-adv-x="212" d="M146 679h51l-119 -679h-51zM258 776l13 75h57l-14 -75h-56zM66 776l13 75h57l-14 -75h-56z" />
<glyph unicode="&#xd1;" horiz-adv-x="548" d="M533 679l-120 -679h-94l-132 565h-11l-99 -565h-50l119 679h70l146 -612h12l108 612h51zM487 829l14 -48h-264l-15 48h265z" />
<glyph unicode="&#xd2;" horiz-adv-x="513" d="M365 167l60 340q7 39 -4.5 63t-30 37t-40 17.5t-37.5 4.5q-15 0 -39 -5t-47.5 -18t-42.5 -37t-26 -63l-60 -340q-7 -39 4 -62t30 -35t41.5 -15.5t37.5 -3.5q16 0 39.5 4t46 16t42 35t26.5 62zM418 167q-4 -21 -17.5 -51.5t-39.5 -58t-66 -47t-95 -19.5q-54 0 -86.5 19.5 t-49 47t-19.5 58t1 51.5l60 339q3 22 17 53t40 59.5t66 49t95 20.5q54 0 86 -20.5t48.5 -48.5t20 -59t-0.5 -53zM316 765l-78 143h59l69 -143h-50z" />
<glyph unicode="&#xd3;" horiz-adv-x="513" d="M365 167l60 340q7 39 -4.5 63t-30 37t-40 17.5t-37.5 4.5q-15 0 -39 -5t-47.5 -18t-42.5 -37t-26 -63l-60 -340q-7 -39 4 -62t30 -35t41.5 -15.5t37.5 -3.5q16 0 39.5 4t46 16t42 35t26.5 62zM418 167q-4 -21 -17.5 -51.5t-39.5 -58t-66 -47t-95 -19.5q-54 0 -86.5 19.5 t-49 47t-19.5 58t1 51.5l60 339q3 22 17 53t40 59.5t66 49t95 20.5q54 0 86 -20.5t48.5 -48.5t20 -59t-0.5 -53zM368 766h-50l118 143h59z" />
<glyph unicode="&#xd4;" horiz-adv-x="513" d="M365 167l60 340q7 39 -4.5 63t-30 37t-40 17.5t-37.5 4.5q-15 0 -39 -5t-47.5 -18t-42.5 -37t-26 -63l-60 -340q-7 -39 4 -62t30 -35t41.5 -15.5t37.5 -3.5q16 0 39.5 4t46 16t42 35t26.5 62zM418 167q-4 -21 -17.5 -51.5t-39.5 -58t-66 -47t-95 -19.5q-54 0 -86.5 19.5 t-49 47t-19.5 58t1 51.5l60 339q3 22 17 53t40 59.5t66 49t95 20.5q54 0 86 -20.5t48.5 -48.5t20 -59t-0.5 -53zM419 801l-62 79l-89 -79h-48l118 121h53l76 -121h-48z" />
<glyph unicode="&#xd5;" horiz-adv-x="513" d="M365 167l60 340q7 39 -4.5 63t-30 37t-40 17.5t-37.5 4.5q-15 0 -39 -5t-47.5 -18t-42.5 -37t-26 -63l-60 -340q-7 -39 4 -62t30 -35t41.5 -15.5t37.5 -3.5q16 0 39.5 4t46 16t42 35t26.5 62zM418 167q-4 -21 -17.5 -51.5t-39.5 -58t-66 -47t-95 -19.5q-54 0 -86.5 19.5 t-49 47t-19.5 58t1 51.5l60 339q3 22 17 53t40 59.5t66 49t95 20.5q54 0 86 -20.5t48.5 -48.5t20 -59t-0.5 -53zM471 829l14 -48h-264l-15 48h265z" />
<glyph unicode="&#xd6;" horiz-adv-x="513" d="M365 167l60 340q7 39 -4.5 63t-30 37t-40 17.5t-37.5 4.5q-15 0 -39 -5t-47.5 -18t-42.5 -37t-26 -63l-60 -340q-7 -39 4 -62t30 -35t41.5 -15.5t37.5 -3.5q16 0 39.5 4t46 16t42 35t26.5 62zM418 167q-4 -21 -17.5 -51.5t-39.5 -58t-66 -47t-95 -19.5q-54 0 -86.5 19.5 t-49 47t-19.5 58t1 51.5l60 339q3 22 17 53t40 59.5t66 49t95 20.5q54 0 86 -20.5t48.5 -48.5t20 -59t-0.5 -53zM410 776l13 75h57l-14 -75h-56zM218 776l13 75h57l-14 -75h-56z" />
<glyph unicode="&#xd7;" horiz-adv-x="447" d="M318 96l-108 132l-156 -132l-28 34l155 132l-108 132l40 34l108 -132l155 132l28 -34l-155 -132l109 -132z" />
<glyph unicode="&#xd8;" horiz-adv-x="513" d="M365 167l60 340q7 39 -4 63t-30 37t-40.5 17.5t-37.5 4.5q-15 0 -39 -5t-47.5 -18t-42.5 -37t-26 -63l-60 -340q-7 -39 4 -62t30 -35t41.5 -15.5t37.5 -3.5q16 0 39.5 4t46.5 16t42 35t26 62zM418 167q-4 -21 -17.5 -51.5t-39.5 -58t-66 -47t-95 -19.5q-54 0 -86.5 19.5 t-49 47t-19.5 58t1 51.5l60 339q4 22 17.5 53t39.5 59.5t66 49t95 20.5q54 0 86 -20.5t48.5 -48.5t20 -59t-0.5 -53zM364 743h58l-261 -807h-58z" />
<glyph unicode="&#xd9;" horiz-adv-x="526" d="M216 42q18 0 42 5t47.5 19.5t42 38.5t24.5 63l91 512h50l-90 -512q-5 -28 -19 -58.5t-39.5 -56.5t-64.5 -43t-92 -17q-54 0 -86.5 17t-49.5 43t-20 56.5t2 58.5l91 512h50l-90 -512q-7 -39 2 -63t26.5 -38.5t40 -19.5t42.5 -5zM324 765l-78 143h59l69 -143h-50z" />
<glyph unicode="&#xda;" horiz-adv-x="526" d="M216 42q18 0 42 5t47.5 19.5t42 38.5t24.5 63l91 512h50l-90 -512q-5 -28 -19 -58.5t-39.5 -56.5t-64.5 -43t-92 -17q-54 0 -86.5 17t-49.5 43t-20 56.5t2 58.5l91 512h50l-90 -512q-7 -39 2 -63t26.5 -38.5t40 -19.5t42.5 -5zM365 766h-50l118 143h59z" />
<glyph unicode="&#xdb;" horiz-adv-x="526" d="M216 42q18 0 42 5t47.5 19.5t42 38.5t24.5 63l91 512h50l-90 -512q-5 -28 -19 -58.5t-39.5 -56.5t-64.5 -43t-92 -17q-54 0 -86.5 17t-49.5 43t-20 56.5t2 58.5l91 512h50l-90 -512q-7 -39 2 -63t26.5 -38.5t40 -19.5t42.5 -5zM425 801l-62 79l-89 -79h-48l118 121h53 l76 -121h-48z" />
<glyph unicode="&#xdc;" horiz-adv-x="526" d="M216 42q18 0 42 5t47.5 19.5t42 38.5t24.5 63l91 512h50l-90 -512q-5 -28 -19 -58.5t-39.5 -56.5t-64.5 -43t-92 -17q-54 0 -86.5 17t-49.5 43t-20 56.5t2 58.5l91 512h50l-90 -512q-7 -39 2 -63t26.5 -38.5t40 -19.5t42.5 -5zM411 776l13 75h57l-14 -75h-56zM219 776 l13 75h57l-14 -75h-56z" />
<glyph unicode="&#xdd;" horiz-adv-x="430" d="M256 308h-14l-54 -308h-58l54 308h-11l-90 371h55l77 -312h17l188 312h54zM313 766h-50l118 143h59z" />
<glyph unicode="&#xde;" horiz-adv-x="426" d="M89 69q48 -28 107 -28q16 0 31.5 6.5t29 18.5t22 27t11.5 32l42 236q3 17 -0.5 32.5t-13 27t-23 18t-29.5 6.5q-24 0 -57.5 -8t-59.5 -26zM158 468q43 20 71.5 23.5t45.5 3.5q27 0 48 -11t35.5 -29.5t20.5 -43.5t1 -53l-40 -229q-5 -28 -19.5 -53t-35.5 -43t-46.5 -29 t-52.5 -11q-20 0 -49.5 5t-57.5 20l-46 -260h-49l162 921h1h48h1z" />
<glyph unicode="&#xdf;" horiz-adv-x="499" d="M428 180q-4 -22 -16 -53t-36.5 -59t-62.5 -48t-94 -20h-50l9 52h48q17 0 39.5 4.5t44.5 18.5t39.5 39.5t24.5 65.5l8 42q7 42 -0.5 67t-23 38.5t-34.5 18t-37 4.5h-22l10 53h21h4q44 0 71.5 28.5t35.5 77.5q7 42 -1.5 67t-25 39t-37.5 18t-37 4q-18 0 -41 -4t-44.5 -18 t-40 -39t-25.5 -67l-89 -509h-53l90 512q4 22 16 52.5t36.5 58t63.5 47.5t96 20q56 0 87.5 -20t45.5 -48t15.5 -59t-2.5 -53q-7 -41 -32 -78.5t-65 -51.5q30 -11 46.5 -31t22.5 -42.5t5.5 -44t-2.5 -37.5l-8 -45v0z" />
<glyph unicode="&#xe0;" horiz-adv-x="399" d="M275 236q0 1 -7.5 6t-21 11.5t-33 12t-41.5 5.5q-17 0 -33 -7t-29 -18.5t-22 -26.5t-12 -33l-11 -61q-6 -34 13 -58.5t52 -24.5q15 0 34.5 5t38.5 12q21 8 44 18zM292 48l15 -18l-40 -35l-23 26q-34 -17 -68 -24t-54 -7q-27 0 -49 11.5t-36 30t-19 44t-1 53.5l10 54 q5 28 19 53t35 43.5t46.5 29t52.5 10.5q7 0 20.5 -1t29.5 -4t31 -8t26 -14l6 33q4 22 0 44t-15 39.5t-27.5 28t-38.5 10.5q-7 0 -28 -5t-43 -9q-27 -6 -57 -14l-5 46q33 7 61 14q24 6 47 11t33 5q31 0 56 -14.5t41 -38.5t22.5 -54.5t0.5 -62.5zM227 571l-78 143h59l69 -143 h-50z" />
<glyph unicode="&#xe1;" horiz-adv-x="399" d="M275 236q0 1 -7.5 6t-21 11.5t-33 12t-41.5 5.5q-17 0 -33 -7t-29 -18.5t-22 -26.5t-12 -33l-11 -61q-6 -34 13 -58.5t52 -24.5q15 0 34.5 5t38.5 12q21 8 44 18zM292 48l15 -18l-40 -35l-23 26q-34 -17 -68 -24t-54 -7q-27 0 -49 11.5t-36 30t-19 44t-1 53.5l10 54 q5 28 19 53t35 43.5t46.5 29t52.5 10.5q7 0 20.5 -1t29.5 -4t31 -8t26 -14l6 33q4 22 0 44t-15 39.5t-27.5 28t-38.5 10.5q-7 0 -28 -5t-43 -9q-27 -6 -57 -14l-5 46q33 7 61 14q24 6 47 11t33 5q31 0 56 -14.5t41 -38.5t22.5 -54.5t0.5 -62.5zM270 572h-50l118 143h59z" />
<glyph unicode="&#xe2;" horiz-adv-x="399" d="M275 236q0 1 -7.5 6t-21 11.5t-33 12t-41.5 5.5q-17 0 -33 -7t-29 -18.5t-22 -26.5t-12 -33l-11 -61q-6 -34 13 -58.5t52 -24.5q15 0 34.5 5t38.5 12q21 8 44 18zM292 48l15 -18l-40 -35l-23 26q-34 -17 -68 -24t-54 -7q-27 0 -49 11.5t-36 30t-19 44t-1 53.5l10 54 q5 28 19 53t35 43.5t46.5 29t52.5 10.5q7 0 20.5 -1t29.5 -4t31 -8t26 -14l6 33q4 22 0 44t-15 39.5t-27.5 28t-38.5 10.5q-7 0 -28 -5t-43 -9q-27 -6 -57 -14l-5 46q33 7 61 14q24 6 47 11t33 5q31 0 56 -14.5t41 -38.5t22.5 -54.5t0.5 -62.5zM332 607l-62 79l-89 -79h-48 l118 121h53l76 -121h-48z" />
<glyph unicode="&#xe3;" horiz-adv-x="399" d="M275 236q0 1 -7.5 6t-21 11.5t-33 12t-41.5 5.5q-17 0 -33 -7t-29 -18.5t-22 -26.5t-12 -33l-11 -61q-6 -34 13 -58.5t52 -24.5q15 0 34.5 5t38.5 12q21 8 44 18zM292 48l15 -18l-40 -35l-23 26q-34 -17 -68 -24t-54 -7q-27 0 -49 11.5t-36 30t-19 44t-1 53.5l10 54 q5 28 19 53t35 43.5t46.5 29t52.5 10.5q7 0 20.5 -1t29.5 -4t31 -8t26 -14l6 33q4 22 0 44t-15 39.5t-27.5 28t-38.5 10.5q-7 0 -28 -5t-43 -9q-27 -6 -57 -14l-5 46q33 7 61 14q24 6 47 11t33 5q31 0 56 -14.5t41 -38.5t22.5 -54.5t0.5 -62.5zM381 635l14 -48h-264l-15 48 h265z" />
<glyph unicode="&#xe4;" horiz-adv-x="399" d="M275 236q0 1 -7.5 6t-21 11.5t-33 12t-41.5 5.5q-17 0 -33 -7t-29 -18.5t-22 -26.5t-12 -33l-11 -61q-6 -34 13 -58.5t52 -24.5q15 0 34.5 5t38.5 12q21 8 44 18zM292 48l15 -18l-40 -35l-23 26q-34 -17 -68 -24t-54 -7q-27 0 -49 11.5t-36 30t-19 44t-1 53.5l10 54 q5 28 19 53t35 43.5t46.5 29t52.5 10.5q7 0 20.5 -1t29.5 -4t31 -8t26 -14l6 33q4 22 0 44t-15 39.5t-27.5 28t-38.5 10.5q-7 0 -28 -5t-43 -9q-27 -6 -57 -14l-5 46q33 7 61 14q24 6 47 11t33 5q31 0 56 -14.5t41 -38.5t22.5 -54.5t0.5 -62.5zM314 582l13 75h57l-14 -75 h-56zM122 582l13 75h57l-14 -75h-56z" />
<glyph unicode="&#xe5;" horiz-adv-x="399" d="M380 674q-5 -25 -18 -46.5t-32.5 -38t-44 -26.5t-49.5 -10t-45 10t-33.5 26.5t-19.5 38t-1 46.5q4 26 17.5 47.5t33 38t43 26.5t48.5 10t46 -9.5t34.5 -26t19 -38.5t1.5 -48zM335 674q6 32 -13 54.5t-51 22.5q-15 0 -30 -6t-27.5 -16.5t-21 -24.5t-11.5 -30 q-6 -31 13 -53t50 -22q16 0 31.5 5.5t27.5 16t20.5 24.5t11.5 29zM275 236q0 1 -7.5 6t-21 11.5t-33 12t-41.5 5.5q-17 0 -33 -7t-29 -18.5t-22 -26.5t-12 -33l-11 -61q-6 -34 13 -58.5t52 -24.5q15 0 34.5 5t38.5 12q21 8 44 18zM292 48l15 -18l-40 -35l-23 26 q-34 -17 -68 -24t-54 -7q-27 0 -49 11.5t-36 30t-19 44t-1 53.5l10 54q5 28 19 53t35 43.5t46.5 29t52.5 10.5q7 0 20.5 -1t29.5 -4t31 -8t26 -14l6 33q4 22 0 44t-15 39.5t-27.5 28t-38.5 10.5q-7 0 -28 -5t-43 -9q-27 -6 -57 -14l-5 46q33 7 61 14q24 6 47 11t33 5 q31 0 56 -14.5t41 -38.5t22.5 -54.5t0.5 -62.5z" />
<glyph unicode="&#xe6;" horiz-adv-x="633" d="M244 23q-34 -19 -68 -26t-54 -7q-27 0 -49 11.5t-36 30t-19 44t-1 53.5l10 54q5 28 19 53t35 43.5t46.5 29t52.5 10.5q7 0 20 -1t28.5 -4t31 -7.5t25.5 -13.5l8 46q1 20 -4.5 40t-16 35t-25.5 24t-35 9q-7 0 -28 -5t-43 -9q-27 -6 -57 -14l-5 46q33 7 61 14q24 6 47 11 t33 5q36 0 63 -19t43 -49q22 31 55.5 49.5t70.5 18.5h33q27 0 50 -11t37.5 -29.5t20.5 -43.5t1 -54l-5 -32q-8 -41 -27.5 -68.5t-47.5 -45t-63 -25t-73 -7.5q-15 0 -30.5 1t-31.5 3l-10 -58q0 -39 25.5 -61.5t63.5 -22.5q4 0 25 4l46 9l63 14l2 -52q-37 -7 -67 -12 q-26 -5 -49.5 -9t-28.5 -4q-36 0 -67.5 16t-43.5 36q-4 -2 -8 -6q-5 -3 -10 -6.5t-13 -7.5zM172 271q-17 0 -33 -7t-29 -18.5t-22 -26.5t-12 -33l-11 -61q-6 -34 13 -58.5t52 -24.5q15 0 34.5 5t38.5 12q21 8 44 18l9 46q0 5 0.5 10t1.5 10l17 94q-2 2 -10.5 7t-22 11 t-31.5 11t-39 5zM439 235q18 -1 34.5 5.5t29.5 19t22 28.5t12 33l7 41q4 23 -1.5 39t-18.5 25.5t-31 14t-38 4.5q-19 0 -36.5 -5.5t-32 -16.5t-25 -26.5t-14.5 -34.5l-22 -127h114z" />
<glyph unicode="&#xe7;" horiz-adv-x="342" d="M78 144q-5 -24 0 -43t17.5 -32.5t30 -20.5t38.5 -7q10 0 25 2.5t29 4.5q18 4 35 9l8 -44q-20 -7 -39 -11q-16 -4 -34.5 -7t-32.5 -3q-32 0 -57.5 11.5t-42.5 31.5t-24.5 48t-1.5 61l35 202q6 33 23 61t41 47t53.5 30.5t61.5 11.5q16 0 32.5 -4t30.5 -9q16 -5 31 -12 l-19 -41q-13 5 -28 8q-13 4 -27.5 7t-27.5 3q-22 0 -41.5 -7t-36 -21t-29 -32t-15.5 -42zM162 -95q-10 -54 -29.5 -81.5t-46.5 -38.5l-21 35q18 7 31 29t19 57l9 49h46l-8 -50v0z" />
<glyph unicode="&#xe8;" horiz-adv-x="404" d="M210 234h2q18 0 34 7t29 19.5t22 28t11 32.5l7 41q4 23 -1.5 39t-18.5 25.5t-31 14t-38 4.5q-18 0 -36 -5.5t-32.5 -16.5t-25 -26.5t-14.5 -34.5l-22 -127zM67 357q5 29 19.5 54t36 43.5t47 29.5t53.5 11h33q27 0 50 -11t37.5 -29.5t21 -43.5t0.5 -54l-5 -32 q-8 -41 -27.5 -68.5t-47.5 -45t-63 -25t-73 -7.5q-15 0 -30.5 1t-31.5 3l-10 -58q0 -39 25.5 -61.5t63.5 -22.5q4 0 25 4l46 9l63 14l2 -52q-37 -7 -67 -12q-25 -5 -49 -9t-29 -4q-31 0 -57 11.5t-43.5 31.5t-25.5 48t-2 61zM233 571l-78 143h59l69 -143h-50z" />
<glyph unicode="&#xe9;" horiz-adv-x="404" d="M210 234h2q18 0 34 7t29 19.5t22 28t11 32.5l7 41q4 23 -1.5 39t-18.5 25.5t-31 14t-38 4.5q-18 0 -36 -5.5t-32.5 -16.5t-25 -26.5t-14.5 -34.5l-22 -127zM67 357q5 29 19.5 54t36 43.5t47 29.5t53.5 11h33q27 0 50 -11t37.5 -29.5t21 -43.5t0.5 -54l-5 -32 q-8 -41 -27.5 -68.5t-47.5 -45t-63 -25t-73 -7.5q-15 0 -30.5 1t-31.5 3l-10 -58q0 -39 25.5 -61.5t63.5 -22.5q4 0 25 4l46 9l63 14l2 -52q-37 -7 -67 -12q-25 -5 -49 -9t-29 -4q-31 0 -57 11.5t-43.5 31.5t-25.5 48t-2 61zM280 572h-50l118 143h59z" />
<glyph unicode="&#xea;" horiz-adv-x="404" d="M210 234h2q18 0 34 7t29 19.5t22 28t11 32.5l7 41q4 23 -1.5 39t-18.5 25.5t-31 14t-38 4.5q-18 0 -36 -5.5t-32.5 -16.5t-25 -26.5t-14.5 -34.5l-22 -127zM67 357q5 29 19.5 54t36 43.5t47 29.5t53.5 11h33q27 0 50 -11t37.5 -29.5t21 -43.5t0.5 -54l-5 -32 q-8 -41 -27.5 -68.5t-47.5 -45t-63 -25t-73 -7.5q-15 0 -30.5 1t-31.5 3l-10 -58q0 -39 25.5 -61.5t63.5 -22.5q4 0 25 4l46 9l63 14l2 -52q-37 -7 -67 -12q-25 -5 -49 -9t-29 -4q-31 0 -57 11.5t-43.5 31.5t-25.5 48t-2 61zM332 607l-62 79l-89 -79h-48l118 121h53l76 -121 h-48z" />
<glyph unicode="&#xeb;" horiz-adv-x="404" d="M210 234h2q18 0 34 7t29 19.5t22 28t11 32.5l7 41q4 23 -1.5 39t-18.5 25.5t-31 14t-38 4.5q-18 0 -36 -5.5t-32.5 -16.5t-25 -26.5t-14.5 -34.5l-22 -127zM67 357q5 29 19.5 54t36 43.5t47 29.5t53.5 11h33q27 0 50 -11t37.5 -29.5t21 -43.5t0.5 -54l-5 -32 q-8 -41 -27.5 -68.5t-47.5 -45t-63 -25t-73 -7.5q-15 0 -30.5 1t-31.5 3l-10 -58q0 -39 25.5 -61.5t63.5 -22.5q4 0 25 4l46 9l63 14l2 -52q-37 -7 -67 -12q-25 -5 -49 -9t-29 -4q-31 0 -57 11.5t-43.5 31.5t-25.5 48t-2 61zM327 582l13 75h57l-14 -75h-56zM135 582l13 75 h57l-14 -75h-56z" />
<glyph unicode="&#xec;" horiz-adv-x="184" d="M98 485h51l-85 -485h-51zM110 571l-78 143h59l69 -143h-50z" />
<glyph unicode="&#xed;" horiz-adv-x="184" d="M98 485h51l-85 -485h-51zM165 572h-51l119 143h59z" />
<glyph unicode="&#xee;" horiz-adv-x="184" d="M132 679h51l-13 -76h-52zM98 485h51l-85 -485h-51zM222 607l-62 79l-89 -79h-48l118 121h53l76 -121h-48z" />
<glyph unicode="&#xef;" horiz-adv-x="184" d="M98 485h51l-85 -485h-51zM209 582l13 75h56l-13 -75h-56zM16 582l14 75h56l-13 -75h-57z" />
<glyph unicode="&#xf1;" horiz-adv-x="428" d="M369 414q7 -24 5 -49t-7 -51l-56 -314h-51l60 344q9 50 -12.5 76t-54.5 26q-18 0 -47.5 -5.5t-70.5 -29.5l-72 -411h-49l76 437l-17 21l40 35l25 -29q57 30 105 30q44 0 79 -18t47 -62zM389 635l14 -48h-264l-15 48h265z" />
<glyph unicode="&#xf2;" d="M282 140l37 210q6 32 -2.5 51t-23 29t-31.5 13.5t-29 3.5q-13 0 -32 -3.5t-37 -13.5t-33 -29t-20 -51l-37 -210q-6 -32 2 -51t22.5 -30t32 -14t30.5 -3t31 3t36.5 14t33 30t20.5 51zM326 133q-8 -45 -29.5 -72t-47.5 -42t-52 -20t-45 -5q-18 0 -42.5 5t-45 20t-32 42 t-3.5 72l39 224q8 45 29 72t47 41.5t52 19.5t45 5q18 0 42.5 -5t45 -19.5t32 -41.5t4.5 -72zM230 571l-78 143h59l69 -143h-50z" />
<glyph unicode="&#xf3;" d="M283 140l37 210q6 32 -2.5 51t-23 29t-31.5 13.5t-29 3.5q-13 0 -32 -3.5t-37 -13.5t-33 -29t-20 -51l-37 -210q-6 -32 2 -51t22.5 -30t32 -14t30.5 -3t31 3t36.5 14t33 30t20.5 51zM327 133q-8 -45 -29.5 -72t-47.5 -42t-52 -20t-45 -5q-18 0 -42.5 5t-45 20t-32 42 t-3.5 72l39 224q8 45 29 72t47 41.5t52 19.5t45 5q18 0 42.5 -5t45 -19.5t32 -41.5t4.5 -72zM276 572h-50l118 143h59z" />
<glyph unicode="&#xf4;" d="M283 140l37 210q6 32 -2.5 51t-23 29t-31.5 13.5t-29 3.5q-13 0 -32 -3.5t-37 -13.5t-33 -29t-20 -51l-37 -210q-6 -32 2 -51t22.5 -30t32 -14t30.5 -3t31 3t36.5 14t33 30t20.5 51zM327 133q-8 -45 -29.5 -72t-47.5 -42t-52 -20t-45 -5q-18 0 -42.5 5t-45 20t-32 42 t-3.5 72l39 224q8 45 29 72t47 41.5t52 19.5t45 5q18 0 42.5 -5t45 -19.5t32 -41.5t4.5 -72zM338 607l-62 79l-89 -79h-48l118 121h53l76 -121h-48z" />
<glyph unicode="&#xf5;" d="M283 140l37 210q6 32 -2.5 51t-23 29t-31.5 13.5t-29 3.5q-13 0 -32 -3.5t-37 -13.5t-33 -29t-20 -51l-37 -210q-6 -32 2 -51t22.5 -30t32 -14t30.5 -3t31 3t36.5 14t33 30t20.5 51zM327 133q-8 -45 -29.5 -72t-47.5 -42t-52 -20t-45 -5q-18 0 -42.5 5t-45 20t-32 42 t-3.5 72l39 224q8 45 29 72t47 41.5t52 19.5t45 5q18 0 42.5 -5t45 -19.5t32 -41.5t4.5 -72zM390 635l14 -48h-264l-15 48h265z" />
<glyph unicode="&#xf6;" d="M283 140l37 210q6 32 -2.5 51t-23 29t-31.5 13.5t-29 3.5q-13 0 -32 -3.5t-37 -13.5t-33 -29t-20 -51l-37 -210q-6 -32 2 -51t22.5 -30t32 -14t30.5 -3t31 3t36.5 14t33 30t20.5 51zM327 133q-8 -45 -29.5 -72t-47.5 -42t-52 -20t-45 -5q-18 0 -42.5 5t-45 20t-32 42 t-3.5 72l39 224q8 45 29 72t47 41.5t52 19.5t45 5q18 0 42.5 -5t45 -19.5t32 -41.5t4.5 -72zM325 582l13 75h57l-14 -75h-56zM133 582l13 75h57l-14 -75h-56z" />
<glyph unicode="&#xf7;" horiz-adv-x="448" d="M263 311h-67l16 88h66zM208 1h-67l14 85h67zM35 174l11 63h332l-10 -63h-333z" />
<glyph unicode="&#xf8;" d="M282 140l37 210q6 32 -2.5 51t-23 29t-31.5 13.5t-29 3.5q-13 0 -32 -3.5t-37 -13.5t-33 -29t-20 -51l-37 -210q-6 -32 2 -51t22.5 -30t32 -14t30.5 -3t31 3t36.5 14t33 30t20.5 51zM326 133q-8 -45 -29.5 -72t-47.5 -42t-52 -20t-45 -5q-18 0 -42.5 5t-45 20t-32 42 t-3.5 72l39 224q8 45 29 72t47 41.5t52 19.5t45 5q18 0 42.5 -5t45 -19.5t32 -41.5t4.5 -72zM277 592h59l-218 -677h-58z" />
<glyph unicode="&#xf9;" horiz-adv-x="427" d="M37 72q-8 24 -5.5 49t7.5 51l55 313h51l-62 -343q-4 -26 0 -44.5t14 -31.5t24.5 -19.5t30.5 -6.5t32.5 3t32 8t29.5 11.5t24 12.5l72 410h50l-78 -437l19 -20l-42 -35l-23 29q-31 -15 -64.5 -22.5t-58.5 -7.5q-35 0 -66 18t-42 62zM231 571l-78 143h59l69 -143h-50z" />
<glyph unicode="&#xfa;" horiz-adv-x="427" d="M37 72q-8 24 -5.5 49t7.5 51l55 313h51l-62 -343q-4 -26 0 -44.5t14 -31.5t24.5 -19.5t30.5 -6.5t32.5 3t32 8t29.5 11.5t24 12.5l72 410h50l-78 -437l19 -20l-42 -35l-23 29q-31 -15 -64.5 -22.5t-58.5 -7.5q-35 0 -66 18t-42 62zM274 572h-50l118 143h59z" />
<glyph unicode="&#xfb;" horiz-adv-x="427" d="M37 72q-8 24 -5.5 49t7.5 51l55 313h51l-62 -343q-4 -26 0 -44.5t14 -31.5t24.5 -19.5t30.5 -6.5t32.5 3t32 8t29.5 11.5t24 12.5l72 410h50l-78 -437l19 -20l-42 -35l-23 29q-31 -15 -64.5 -22.5t-58.5 -7.5q-35 0 -66 18t-42 62zM340 607l-62 79l-89 -79h-48l118 121 h53l76 -121h-48z" />
<glyph unicode="&#xfc;" horiz-adv-x="427" d="M37 72q-8 24 -5.5 49t7.5 51l55 313h51l-62 -343q-4 -26 0 -44.5t14 -31.5t24.5 -19.5t30.5 -6.5t32.5 3t32 8t29.5 11.5t24 12.5l72 410h50l-78 -437l19 -20l-42 -35l-23 29q-31 -15 -64.5 -22.5t-58.5 -7.5q-35 0 -66 18t-42 62zM330 582l13 75h57l-14 -75h-56z M138 582l13 75h57l-14 -75h-56z" />
<glyph unicode="&#xfd;" horiz-adv-x="372" d="M24 -242l84 242h-7l-44 485h50q6 -107 12.5 -181t11.5 -122q6 -55 11 -91h11q14 36 39 91q20 48 53.5 122l83.5 181h49l-215 -485h-6l-83 -242h-50zM251 572h-50l118 143h59z" />
<glyph unicode="&#xfe;" horiz-adv-x="415" d="M75 68q47 -28 106 -28q17 0 32.5 6.5t28.5 18.5t22 27t11 32l42 236q6 35 -13 59.5t-53 24.5q-23 0 -57 -8t-59 -26zM144 467q42 20 70.5 23.5t45.5 3.5q27 0 48.5 -11t36 -29.5t20 -43.5t0.5 -53l-40 -229q-5 -28 -19.5 -53t-35.5 -43t-46 -29t-52 -11q-21 0 -50.5 5 t-57.5 20l-47 -259h-48l163 920h1h47h1z" />
<glyph unicode="&#xff;" horiz-adv-x="372" d="M24 -242l84 242h-7l-44 485h50q6 -107 12.5 -181t11.5 -122q6 -55 11 -91h11q14 36 39 91q20 48 53.5 122l83.5 181h49l-215 -485h-6l-83 -242h-50zM304 582l13 75h57l-14 -75h-56zM112 582l13 75h57l-14 -75h-56z" />
<glyph unicode="&#x152;" horiz-adv-x="710" d="M429 534q2 33 -10.5 53.5t-30 31.5t-38 15t-35.5 4t-39 -4.5t-47.5 -18t-43 -37t-26.5 -62.5l-60 -340q-7 -39 4 -62t30 -35t41.5 -15.5t37.5 -3.5t37 3.5t43.5 13.5t41 29.5t28.5 52.5zM342 48q-25 -20 -59.5 -33.5t-80.5 -13.5q-55 0 -87.5 19.5t-48.5 47t-19 57.5 t1 52l59 339q4 21 18 52t40 60t65.5 49t94.5 20q46 0 75.5 -14.5t47.5 -36.5l8 43h273l-9 -56h-219l-45 -254h171l-10 -56h-171l-44 -256h220l-11 -56h-275z" />
<glyph unicode="&#x153;" horiz-adv-x="657" d="M282 138l37 210q6 32 -2.5 51t-23 29t-32 13.5t-29.5 3.5q-13 0 -31.5 -3.5t-36.5 -13.5t-33 -29t-20 -51l-37 -210q-6 -32 2 -51t22.5 -29.5t32 -14t30.5 -3.5t31 3.5t36 14t33 29.5t21 51zM325 131q-8 -45 -29 -72t-47 -42t-52 -20t-45 -5q-18 0 -42.5 5t-45 20 t-32.5 42t-4 72l40 224q8 45 29 72t47 41.5t52 19.5t45 5q18 0 42.5 -5t45 -19.5t32 -41.5t4.5 -72zM464 234h2q17 0 33 7t29 19.5t22 28t12 32.5l6 41q4 23 -1 39t-18.5 25.5t-31 14t-38.5 4.5q-18 0 -36 -5.5t-32.5 -16.5t-25 -26.5t-13.5 -34.5l-23 -127zM320 357 q5 29 19.5 54t36 43.5t47 29.5t53.5 11h33q27 0 50 -11t37.5 -29.5t21 -43.5t0.5 -54l-5 -32q-8 -41 -27.5 -68.5t-47.5 -45t-63 -25t-72 -7.5q-16 0 -31.5 1t-31.5 3l-10 -58q0 -39 25.5 -61.5t63.5 -22.5q10 0 32 3.5t45 8.5q26 6 57 14l2 -51q-32 -7 -60 -12 q-25 -5 -48.5 -9t-36.5 -4q-31 0 -57 11.5t-43.5 31.5t-25.5 48t-2 61z" />
<glyph unicode="&#x178;" horiz-adv-x="430" d="M256 308h-14l-54 -308h-58l54 308h-11l-90 371h55l77 -312h17l188 312h54zM367 776l13 75h57l-14 -75h-56zM175 776l13 75h57l-14 -75h-56z" />
<glyph unicode="&#x2c6;" horiz-adv-x="392" d="M374 607l-62 79l-89 -79h-48l118 121h53l76 -121h-48z" />
<glyph unicode="&#x2dc;" horiz-adv-x="490" d="M474 635l14 -48h-264l-15 48h265z" />
<glyph unicode="&#x2013;" horiz-adv-x="459" d="M44 203l9 52h333l-10 -52h-332z" />
<glyph unicode="&#x2014;" horiz-adv-x="721" d="M44 203l9 52h596l-10 -52h-595z" />
<glyph unicode="&#x2018;" horiz-adv-x="361" d="M300 571l-78 143h59l69 -143h-50z" />
<glyph unicode="&#x2019;" horiz-adv-x="185" d="M195 629q-10 -55 -37.5 -88t-68.5 -48l-6 58q19 8 34 26t22 53l8 49h57l-9 -50v0z" />
<glyph unicode="&#x201a;" horiz-adv-x="192" d="M165 436q-10 -55 -37.5 -88t-68.5 -48l-6 58q19 8 34 26t22 52l8 50h57l-9 -50v0z" />
<glyph unicode="&#x201c;" horiz-adv-x="316" d="M94 545q10 54 37.5 87t67.5 49l7 -58q-19 -8 -34.5 -26t-22.5 -53l-8 -49h-57zM221 545q10 54 37.5 87t67.5 49l7 -58q-19 -8 -34.5 -26t-22.5 -53l-8 -49h-57z" />
<glyph unicode="&#x201d;" horiz-adv-x="312" d="M322 629q-10 -55 -37.5 -88t-68.5 -48l-6 58q19 8 34 26t22 53l9 49h56zM195 629q-10 -55 -37.5 -88t-68.5 -48l-6 58q19 8 34 26t22 53l8 49h57z" />
<glyph unicode="&#x2022;" horiz-adv-x="297" d="M237 240q-4 -21 -15.5 -39.5t-27.5 -32.5t-35.5 -21.5t-40.5 -7.5q-20 0 -37 7.5t-28 21.5t-16 32.5t-1 39.5q4 20 14.5 38.5t26.5 32.5t36 21.5t40 7.5q21 0 38 -7.5t28.5 -21.5t16.5 -32.5t1 -38.5z" />
<glyph unicode="&#x2026;" horiz-adv-x="496" d="M6 5l15 85h67l-15 -85h-67zM162 5l16 85h66l-15 -85h-67zM318 5l16 85h67l-16 -85h-67z" />
<glyph unicode="&#x2039;" horiz-adv-x="485" d="M395 218l-9 -52l-340 86l14 83l370 82l-9 -53l-168 -35q-15 -4 -37.5 -8.5t-43.5 -9.5q-26 -4 -52 -10l-3 -20l14.5 -3l34 -7t41 -9l35.5 -8z" />
<glyph unicode="&#x203a;" horiz-adv-x="483" d="M225 259q15 3 37.5 8t44 8.5t37 7l15.5 3.5l3 20l-48 10q-19 5 -40.5 9.5t-34.5 8.5l-155 35l9 53l341 -82l-15 -83l-370 -86l9 52z" />
<glyph unicode="&#x2044;" horiz-adv-x="223" d="M197 678h58l-217 -677h-58z" />
<glyph unicode="&#x20ac;" horiz-adv-x="460" d="M377 158l-4 -25q-4 -28 -18.5 -52.5t-35 -42.5t-46 -28t-52.5 -10h-32q-27 0 -48.5 10t-36 28t-19.5 42.5t-1 52.5l20 109h-70l7 43h70l13 74h-70l7 43h70l19 109q5 28 19.5 52.5t35.5 42.5t46 28t53 10h32q26 0 47.5 -10t36 -28t19.5 -42.5t0 -52.5l-3 -22h-50l4 22 q7 39 -16.5 60t-59.5 21q-20 0 -38.5 -4t-34 -13.5t-26.5 -25t-15 -38.5l-20 -109h149l-7 -43h-148l-14 -74h148l-6 -43h-149l-19 -106q-6 -35 12.5 -60t52.5 -25h31q16 0 31.5 7t29 18t22 26.5t11.5 33.5l4 22h49z" />
<glyph unicode="&#x2122;" horiz-adv-x="550" d="M409 490l91 189h37l-53 -304h-23l44 253h-5l-80 -163h-38l-21 163h-6l-45 -253h-22l53 304h38l24 -189h6zM289 679l-4 -23h-70l-49 -281h-23l49 281h-72l4 23h165z" />
<glyph unicode="&#x2212;" horiz-adv-x="478" d="M61 243l11 63h332l-10 -63h-333z" />
<glyph unicode="&#xe000;" horiz-adv-x="485" d="M0 485h485v-485h-485v485z" />
<glyph unicode="&#xfb01;" horiz-adv-x="459" d="M405 679h52l-14 -76h-51zM196 485h227l-85 -485h-52l77 437h-175l-76 -437h-52l77 437h-86l9 48h86l13 76q13 68 50.5 97.5t86.5 29.5h17l-9 -53h-13q-27 0 -50.5 -14.5t-30.5 -53.5z" />
<glyph unicode="&#xfb02;" horiz-adv-x="480" d="M308 128l55 309h-175l-76 -437h-52l77 437h-86l9 48h86l13 76q13 68 50.5 97.5t86.5 29.5h17l-9 -53h-13q-27 0 -50.5 -14.5t-30.5 -53.5l-14 -82h176l33 194h51l-98 -556q-4 -20 -1 -33t11 -21.5t20 -12t25 -3.5h13l-9 -52h-17q-25 0 -44 7.5t-32 22.5t-17 39t1 58z" />
<glyph unicode="&#xfb03;" horiz-adv-x="741" d="M689 679h51l-13 -76h-52zM655 485h51l-85 -485h-51zM390 0h-52l77 437h-86l9 48h86l13 76q13 68 50.5 97.5t86.5 29.5h17l-9 -53h-13q-27 0 -50.5 -14.5t-30.5 -53.5l-14 -82h93l-9 -48h-92zM112 0h-52l77 437h-86l9 48h86l13 76q13 68 50.5 97.5t86.5 29.5h17l-9 -53 h-13q-27 0 -50.5 -14.5t-30.5 -53.5l-14 -82h93l-9 -48h-92z" />
<glyph unicode="&#xfb04;" horiz-adv-x="769" d="M695 679h50l-98 -556q-4 -20 -1 -33t11.5 -21.5t20 -12t25.5 -3.5h12l-9 -52h-17q-24 0 -43.5 7.5t-32 22.5t-17 39t1.5 58zM390 0h-52l77 437h-86l9 48h86l13 76q13 68 50.5 97.5t86.5 29.5h17l-9 -53h-13q-27 0 -50.5 -14.5t-30.5 -53.5l-14 -82h93l-9 -48h-92zM112 0 h-52l77 437h-86l9 48h86l13 76q13 68 50.5 97.5t86.5 29.5h17l-9 -53h-13q-27 0 -50.5 -14.5t-30.5 -53.5l-14 -82h93l-9 -48h-92z" />
</font>
</defs>
</svg>
